RBDS021runT45_grf
version=1
nRows=12
nColumns=19
inDegrees=no
endheader
time	ground_force_r_vx	ground_force_r_vy	ground_force_r_vz	ground_force_r_px	ground_force_r_py	ground_force_r_pz	ground_force_r_mx	ground_force_r_my	ground_force_r_mz	ground_force_l_vx	ground_force_l_vy	ground_force_l_vz	ground_force_l_px	ground_force_l_py	ground_force_l_pz	ground_force_l_mx	ground_force_l_my	ground_force_l_mz
      7.49900000	      0.00000000	      0.00000000	      0.00000000	      0.00000000	      0.00000000	      0.00000000	      0.00000000	      0.00000000	      0.00000000	   -203.98400154	   1319.71357794	    -32.55726147	      2.29841250	      0.00000000	      1.03985650	      0.00000000	      5.21316459	     -0.00000000
      7.50000000	      0.00000000	      0.00000000	      0.00000000	      0.00000000	      0.00000000	      0.00000000	      0.00000000	      0.00000000	      0.00000000	   -206.96421060	   1340.33500265	    -32.69057731	      2.29551361	      0.00000000	      1.04037421	      0.00000000	      5.18289678	     -0.00000000
      7.50100000	      0.00000000	      0.00000000	      0.00000000	      0.00000000	      0.00000000	      0.00000000	      0.00000000	      0.00000000	      0.00000000	   -209.22898847	   1358.39878573	    -32.49268978	      2.29250347	      0.00000000	      1.04077113	      0.00000000	      5.13387655	     -0.00000000
      7.50200000	      0.00000000	      0.00000000	      0.00000000	      0.00000000	      0.00000000	      0.00000000	      0.00000000	      0.00000000	      0.00000000	   -211.49376633	   1376.46256881	    -32.29480225	      2.28949334	      0.00000000	      1.04116806	      0.00000000	      5.08485633	     -0.00000000
      7.50300000	      0.00000000	      0.00000000	      0.00000000	      0.00000000	      0.00000000	      0.00000000	      0.00000000	      0.00000000	      0.00000000	   -213.75854419	   1394.52635190	    -32.09691471	      2.28648320	      0.00000000	      1.04156498	      0.00000000	      5.03583610	     -0.00000000
      7.50400000	      0.00000000	      0.00000000	      0.00000000	      0.00000000	      0.00000000	      0.00000000	      0.00000000	      0.00000000	      0.00000000	   -215.51411050	   1410.98110208	    -31.66528829	      2.28339766	      0.00000000	      1.04188362	      0.00000000	      4.97939845	     -0.00000000
      7.50500000	      0.00000000	      0.00000000	      0.00000000	      0.00000000	      0.00000000	      0.00000000	      0.00000000	      0.00000000	      0.00000000	   -217.01507103	   1426.63133581	    -31.11679243	      2.28027442	      0.00000000	      1.04216310	      0.00000000	      4.91925209	     -0.00000000
      7.50600000	      0.00000000	      0.00000000	      0.00000000	      0.00000000	      0.00000000	      0.00000000	      0.00000000	      0.00000000	      0.00000000	   -218.51603155	   1442.28156954	    -30.56829656	      2.27715118	      0.00000000	      1.04244258	      0.00000000	      4.85910573	     -0.00000000
      7.50700000	      0.00000000	      0.00000000	      0.00000000	      0.00000000	      0.00000000	      0.00000000	      0.00000000	      0.00000000	      0.00000000	   -219.74910471	   1457.18672367	    -29.90092067	      2.27399021	      0.00000000	      1.04268488	      0.00000000	      4.79772080	     -0.00000000
      7.50800000	      0.00000000	      0.00000000	      0.00000000	      0.00000000	      0.00000000	      0.00000000	      0.00000000	      0.00000000	      0.00000000	   -220.44640315	   1470.60171858	    -28.99578470	      2.27075378	      0.00000000	      1.04285280	      0.00000000	      4.73385876	     -0.00000000
      7.50900000	      0.00000000	      0.00000000	      0.00000000	      0.00000000	      0.00000000	      0.00000000	      0.00000000	      0.00000000	      0.00000000	   -221.14370159	   1484.01671349	    -28.09064874	      2.26751735	      0.00000000	      1.04302071	      0.00000000	      4.66999672	     -0.00000000
      7.51000000	      0.00000000	      0.00000000	      0.00000000	      0.00000000	      0.00000000	      0.00000000	      0.00000000	      0.00000000	      0.00000000	   -221.84100002	   1497.43170840	    -27.18551278	      2.26428092	      0.00000000	      1.04318863	      0.00000000	      4.60613468	     -0.00000000
